<mxfile host="app.diagrams.net" agent="Mozilla/5.0 (X11; Linux x86_64) AppleWebKit/537.36 (KHTML, like Gecko) Chrome/135.0.0.0 Safari/537.36" version="26.2.12">
  <diagram name="Страница — 1" id="DNodME65V2v7rrz9sSxk">
    <mxGraphModel dx="2788" dy="931" grid="1" gridSize="10" guides="1" tooltips="1" connect="1" arrows="1" fold="1" page="1" pageScale="1" pageWidth="827" pageHeight="1169" math="0" shadow="0">
      <root>
        <mxCell id="0" />
        <mxCell id="1" parent="0" />
        <mxCell id="kIqishwmATh65YuPElsZ-3" value="" style="edgeStyle=orthogonalEdgeStyle;rounded=0;orthogonalLoop=1;jettySize=auto;html=1;" edge="1" parent="1" source="kIqishwmATh65YuPElsZ-1" target="kIqishwmATh65YuPElsZ-2">
          <mxGeometry relative="1" as="geometry" />
        </mxCell>
        <mxCell id="kIqishwmATh65YuPElsZ-5" value="" style="edgeStyle=orthogonalEdgeStyle;rounded=0;orthogonalLoop=1;jettySize=auto;html=1;" edge="1" parent="1" source="kIqishwmATh65YuPElsZ-1" target="kIqishwmATh65YuPElsZ-4">
          <mxGeometry relative="1" as="geometry" />
        </mxCell>
        <mxCell id="kIqishwmATh65YuPElsZ-7" value="" style="edgeStyle=orthogonalEdgeStyle;rounded=0;orthogonalLoop=1;jettySize=auto;html=1;" edge="1" parent="1" source="kIqishwmATh65YuPElsZ-1" target="kIqishwmATh65YuPElsZ-6">
          <mxGeometry relative="1" as="geometry" />
        </mxCell>
        <mxCell id="kIqishwmATh65YuPElsZ-1" value="food log" style="rounded=0;whiteSpace=wrap;html=1;" vertex="1" parent="1">
          <mxGeometry x="200" y="120" width="120" height="60" as="geometry" />
        </mxCell>
        <mxCell id="kIqishwmATh65YuPElsZ-2" value="created_at" style="rounded=0;whiteSpace=wrap;html=1;" vertex="1" parent="1">
          <mxGeometry x="-120" y="240" width="120" height="60" as="geometry" />
        </mxCell>
        <mxCell id="kIqishwmATh65YuPElsZ-4" value="udpdated_at" style="rounded=0;whiteSpace=wrap;html=1;" vertex="1" parent="1">
          <mxGeometry x="40" y="240" width="120" height="60" as="geometry" />
        </mxCell>
        <mxCell id="kIqishwmATh65YuPElsZ-6" value="user_id" style="rounded=0;whiteSpace=wrap;html=1;" vertex="1" parent="1">
          <mxGeometry x="200" y="240" width="120" height="60" as="geometry" />
        </mxCell>
        <mxCell id="kIqishwmATh65YuPElsZ-8" value="prot" style="rounded=0;whiteSpace=wrap;html=1;" vertex="1" parent="1">
          <mxGeometry x="360" y="240" width="120" height="60" as="geometry" />
        </mxCell>
        <mxCell id="kIqishwmATh65YuPElsZ-9" value="fat" style="rounded=0;whiteSpace=wrap;html=1;" vertex="1" parent="1">
          <mxGeometry x="520" y="240" width="120" height="60" as="geometry" />
        </mxCell>
        <mxCell id="kIqishwmATh65YuPElsZ-10" value="carb" style="rounded=0;whiteSpace=wrap;html=1;" vertex="1" parent="1">
          <mxGeometry x="680" y="240" width="120" height="60" as="geometry" />
        </mxCell>
        <mxCell id="kIqishwmATh65YuPElsZ-11" value="" style="edgeStyle=orthogonalEdgeStyle;rounded=0;orthogonalLoop=1;jettySize=auto;html=1;exitX=1;exitY=0.5;exitDx=0;exitDy=0;entryX=0.5;entryY=0;entryDx=0;entryDy=0;" edge="1" parent="1" source="kIqishwmATh65YuPElsZ-1" target="kIqishwmATh65YuPElsZ-8">
          <mxGeometry relative="1" as="geometry">
            <mxPoint x="270" y="190" as="sourcePoint" />
            <mxPoint x="270" y="250" as="targetPoint" />
          </mxGeometry>
        </mxCell>
        <mxCell id="kIqishwmATh65YuPElsZ-12" value="" style="edgeStyle=orthogonalEdgeStyle;rounded=0;orthogonalLoop=1;jettySize=auto;html=1;exitX=1;exitY=0.5;exitDx=0;exitDy=0;" edge="1" parent="1" source="kIqishwmATh65YuPElsZ-1" target="kIqishwmATh65YuPElsZ-9">
          <mxGeometry relative="1" as="geometry">
            <mxPoint x="330" y="160" as="sourcePoint" />
            <mxPoint x="430" y="250" as="targetPoint" />
          </mxGeometry>
        </mxCell>
        <mxCell id="kIqishwmATh65YuPElsZ-13" value="" style="edgeStyle=orthogonalEdgeStyle;rounded=0;orthogonalLoop=1;jettySize=auto;html=1;exitX=1;exitY=0.5;exitDx=0;exitDy=0;entryX=0.5;entryY=0;entryDx=0;entryDy=0;" edge="1" parent="1" source="kIqishwmATh65YuPElsZ-1" target="kIqishwmATh65YuPElsZ-10">
          <mxGeometry relative="1" as="geometry">
            <mxPoint x="340" y="170" as="sourcePoint" />
            <mxPoint x="440" y="260" as="targetPoint" />
          </mxGeometry>
        </mxCell>
        <mxCell id="kIqishwmATh65YuPElsZ-14" value="calorific_value" style="rounded=0;whiteSpace=wrap;html=1;" vertex="1" parent="1">
          <mxGeometry x="840" y="240" width="120" height="60" as="geometry" />
        </mxCell>
        <mxCell id="kIqishwmATh65YuPElsZ-15" value="" style="edgeStyle=orthogonalEdgeStyle;rounded=0;orthogonalLoop=1;jettySize=auto;html=1;exitX=1;exitY=0.5;exitDx=0;exitDy=0;" edge="1" parent="1" source="kIqishwmATh65YuPElsZ-1" target="kIqishwmATh65YuPElsZ-14">
          <mxGeometry relative="1" as="geometry">
            <mxPoint x="330" y="160" as="sourcePoint" />
            <mxPoint x="750" y="250" as="targetPoint" />
          </mxGeometry>
        </mxCell>
        <mxCell id="kIqishwmATh65YuPElsZ-16" value="weight" style="rounded=0;whiteSpace=wrap;html=1;" vertex="1" parent="1">
          <mxGeometry x="1000" y="240" width="120" height="60" as="geometry" />
        </mxCell>
        <mxCell id="kIqishwmATh65YuPElsZ-17" value="name" style="rounded=0;whiteSpace=wrap;html=1;" vertex="1" parent="1">
          <mxGeometry x="1160" y="240" width="120" height="60" as="geometry" />
        </mxCell>
        <mxCell id="kIqishwmATh65YuPElsZ-18" value="food_id" style="rounded=0;whiteSpace=wrap;html=1;" vertex="1" parent="1">
          <mxGeometry x="1320" y="240" width="120" height="60" as="geometry" />
        </mxCell>
        <mxCell id="kIqishwmATh65YuPElsZ-21" value="" style="edgeStyle=orthogonalEdgeStyle;rounded=0;orthogonalLoop=1;jettySize=auto;html=1;entryX=0.5;entryY=0;entryDx=0;entryDy=0;" edge="1" parent="1" source="kIqishwmATh65YuPElsZ-19" target="kIqishwmATh65YuPElsZ-24">
          <mxGeometry relative="1" as="geometry">
            <mxPoint x="260" y="540" as="targetPoint" />
          </mxGeometry>
        </mxCell>
        <mxCell id="kIqishwmATh65YuPElsZ-34" value="" style="edgeStyle=orthogonalEdgeStyle;rounded=0;orthogonalLoop=1;jettySize=auto;html=1;" edge="1" parent="1" source="kIqishwmATh65YuPElsZ-19" target="kIqishwmATh65YuPElsZ-23">
          <mxGeometry relative="1" as="geometry" />
        </mxCell>
        <mxCell id="kIqishwmATh65YuPElsZ-36" value="" style="edgeStyle=orthogonalEdgeStyle;rounded=0;orthogonalLoop=1;jettySize=auto;html=1;" edge="1" parent="1" source="kIqishwmATh65YuPElsZ-19" target="kIqishwmATh65YuPElsZ-25">
          <mxGeometry relative="1" as="geometry" />
        </mxCell>
        <mxCell id="kIqishwmATh65YuPElsZ-19" value="my_food" style="rounded=0;whiteSpace=wrap;html=1;" vertex="1" parent="1">
          <mxGeometry x="200" y="400" width="120" height="60" as="geometry" />
        </mxCell>
        <mxCell id="kIqishwmATh65YuPElsZ-22" value="created_at" style="rounded=0;whiteSpace=wrap;html=1;" vertex="1" parent="1">
          <mxGeometry x="-120" y="520" width="120" height="60" as="geometry" />
        </mxCell>
        <mxCell id="kIqishwmATh65YuPElsZ-23" value="udpdated_at" style="rounded=0;whiteSpace=wrap;html=1;" vertex="1" parent="1">
          <mxGeometry x="40" y="520" width="120" height="60" as="geometry" />
        </mxCell>
        <mxCell id="kIqishwmATh65YuPElsZ-24" value="user_id" style="rounded=0;whiteSpace=wrap;html=1;" vertex="1" parent="1">
          <mxGeometry x="200" y="520" width="120" height="60" as="geometry" />
        </mxCell>
        <mxCell id="kIqishwmATh65YuPElsZ-25" value="food_id" style="rounded=0;whiteSpace=wrap;html=1;" vertex="1" parent="1">
          <mxGeometry x="360" y="520" width="120" height="60" as="geometry" />
        </mxCell>
        <mxCell id="kIqishwmATh65YuPElsZ-32" value="" style="edgeStyle=orthogonalEdgeStyle;rounded=0;orthogonalLoop=1;jettySize=auto;html=1;" edge="1" parent="1" source="kIqishwmATh65YuPElsZ-26" target="kIqishwmATh65YuPElsZ-30">
          <mxGeometry relative="1" as="geometry" />
        </mxCell>
        <mxCell id="kIqishwmATh65YuPElsZ-37" value="" style="edgeStyle=orthogonalEdgeStyle;rounded=0;orthogonalLoop=1;jettySize=auto;html=1;" edge="1" parent="1" source="kIqishwmATh65YuPElsZ-26" target="kIqishwmATh65YuPElsZ-28">
          <mxGeometry relative="1" as="geometry" />
        </mxCell>
        <mxCell id="kIqishwmATh65YuPElsZ-39" value="" style="edgeStyle=orthogonalEdgeStyle;rounded=0;orthogonalLoop=1;jettySize=auto;html=1;" edge="1" parent="1" source="kIqishwmATh65YuPElsZ-26" target="kIqishwmATh65YuPElsZ-31">
          <mxGeometry relative="1" as="geometry" />
        </mxCell>
        <mxCell id="kIqishwmATh65YuPElsZ-26" value="&lt;div&gt;&lt;span style=&quot;background-color: transparent; color: light-dark(rgb(0, 0, 0), rgb(255, 255, 255));&quot;&gt;food&lt;/span&gt;&lt;/div&gt;" style="rounded=0;whiteSpace=wrap;html=1;" vertex="1" parent="1">
          <mxGeometry x="200" y="640" width="120" height="60" as="geometry" />
        </mxCell>
        <mxCell id="kIqishwmATh65YuPElsZ-27" value="created_at" style="rounded=0;whiteSpace=wrap;html=1;" vertex="1" parent="1">
          <mxGeometry x="-120" y="760" width="120" height="60" as="geometry" />
        </mxCell>
        <mxCell id="kIqishwmATh65YuPElsZ-28" value="udpdated_at" style="rounded=0;whiteSpace=wrap;html=1;" vertex="1" parent="1">
          <mxGeometry x="40" y="760" width="120" height="60" as="geometry" />
        </mxCell>
        <mxCell id="kIqishwmATh65YuPElsZ-30" value="food_id" style="rounded=0;whiteSpace=wrap;html=1;" vertex="1" parent="1">
          <mxGeometry x="200" y="760" width="120" height="60" as="geometry" />
        </mxCell>
        <mxCell id="kIqishwmATh65YuPElsZ-31" value="name" style="rounded=0;whiteSpace=wrap;html=1;" vertex="1" parent="1">
          <mxGeometry x="360" y="760" width="120" height="60" as="geometry" />
        </mxCell>
        <mxCell id="kIqishwmATh65YuPElsZ-35" value="" style="edgeStyle=orthogonalEdgeStyle;rounded=0;orthogonalLoop=1;jettySize=auto;html=1;entryX=0.5;entryY=0;entryDx=0;entryDy=0;exitX=0;exitY=0.5;exitDx=0;exitDy=0;" edge="1" parent="1" source="kIqishwmATh65YuPElsZ-19" target="kIqishwmATh65YuPElsZ-22">
          <mxGeometry relative="1" as="geometry">
            <mxPoint x="210" y="440" as="sourcePoint" />
            <mxPoint x="110" y="530" as="targetPoint" />
          </mxGeometry>
        </mxCell>
        <mxCell id="kIqishwmATh65YuPElsZ-38" value="" style="endArrow=classic;html=1;rounded=0;exitX=0;exitY=0.5;exitDx=0;exitDy=0;entryX=0.5;entryY=0;entryDx=0;entryDy=0;edgeStyle=orthogonalEdgeStyle;" edge="1" parent="1" source="kIqishwmATh65YuPElsZ-26" target="kIqishwmATh65YuPElsZ-27">
          <mxGeometry width="50" height="50" relative="1" as="geometry">
            <mxPoint x="540" y="540" as="sourcePoint" />
            <mxPoint x="590" y="490" as="targetPoint" />
          </mxGeometry>
        </mxCell>
        <mxCell id="kIqishwmATh65YuPElsZ-42" value="" style="edgeStyle=orthogonalEdgeStyle;rounded=0;orthogonalLoop=1;jettySize=auto;html=1;" edge="1" parent="1" source="kIqishwmATh65YuPElsZ-40" target="kIqishwmATh65YuPElsZ-41">
          <mxGeometry relative="1" as="geometry" />
        </mxCell>
        <mxCell id="kIqishwmATh65YuPElsZ-40" value="wieght" style="rounded=0;whiteSpace=wrap;html=1;" vertex="1" parent="1">
          <mxGeometry x="200" y="1200" width="120" height="60" as="geometry" />
        </mxCell>
        <mxCell id="kIqishwmATh65YuPElsZ-41" value="value" style="rounded=0;whiteSpace=wrap;html=1;" vertex="1" parent="1">
          <mxGeometry x="200" y="1320" width="120" height="60" as="geometry" />
        </mxCell>
        <mxCell id="kIqishwmATh65YuPElsZ-43" value="created_at" style="rounded=0;whiteSpace=wrap;html=1;" vertex="1" parent="1">
          <mxGeometry x="-120" y="1320" width="120" height="60" as="geometry" />
        </mxCell>
        <mxCell id="kIqishwmATh65YuPElsZ-44" value="udpdated_at" style="rounded=0;whiteSpace=wrap;html=1;" vertex="1" parent="1">
          <mxGeometry x="40" y="1320" width="120" height="60" as="geometry" />
        </mxCell>
        <mxCell id="kIqishwmATh65YuPElsZ-47" value="" style="edgeStyle=orthogonalEdgeStyle;rounded=0;orthogonalLoop=1;jettySize=auto;html=1;" edge="1" parent="1" source="kIqishwmATh65YuPElsZ-45" target="kIqishwmATh65YuPElsZ-46">
          <mxGeometry relative="1" as="geometry" />
        </mxCell>
        <mxCell id="kIqishwmATh65YuPElsZ-45" value="diet" style="rounded=0;whiteSpace=wrap;html=1;" vertex="1" parent="1">
          <mxGeometry x="200" y="880" width="120" height="60" as="geometry" />
        </mxCell>
        <mxCell id="kIqishwmATh65YuPElsZ-46" value="name" style="rounded=0;whiteSpace=wrap;html=1;" vertex="1" parent="1">
          <mxGeometry x="200" y="1000" width="120" height="60" as="geometry" />
        </mxCell>
        <mxCell id="kIqishwmATh65YuPElsZ-48" value="created_at" style="rounded=0;whiteSpace=wrap;html=1;" vertex="1" parent="1">
          <mxGeometry x="-120" y="1000" width="120" height="60" as="geometry" />
        </mxCell>
        <mxCell id="kIqishwmATh65YuPElsZ-49" value="udpdated_at" style="rounded=0;whiteSpace=wrap;html=1;" vertex="1" parent="1">
          <mxGeometry x="40" y="1000" width="120" height="60" as="geometry" />
        </mxCell>
        <mxCell id="kIqishwmATh65YuPElsZ-50" value="start_date" style="rounded=0;whiteSpace=wrap;html=1;" vertex="1" parent="1">
          <mxGeometry x="360" y="1000" width="120" height="60" as="geometry" />
        </mxCell>
        <mxCell id="kIqishwmATh65YuPElsZ-51" value="end_date" style="rounded=0;whiteSpace=wrap;html=1;" vertex="1" parent="1">
          <mxGeometry x="520" y="1000" width="120" height="60" as="geometry" />
        </mxCell>
        <mxCell id="kIqishwmATh65YuPElsZ-52" value="prot_min" style="rounded=0;whiteSpace=wrap;html=1;" vertex="1" parent="1">
          <mxGeometry x="680" y="1000" width="120" height="60" as="geometry" />
        </mxCell>
        <mxCell id="kIqishwmATh65YuPElsZ-53" value="fat_min" style="rounded=0;whiteSpace=wrap;html=1;" vertex="1" parent="1">
          <mxGeometry x="840" y="1000" width="120" height="60" as="geometry" />
        </mxCell>
        <mxCell id="kIqishwmATh65YuPElsZ-54" value="carb_min" style="rounded=0;whiteSpace=wrap;html=1;" vertex="1" parent="1">
          <mxGeometry x="1000" y="1000" width="120" height="60" as="geometry" />
        </mxCell>
        <mxCell id="kIqishwmATh65YuPElsZ-55" value="calorific_value_min" style="rounded=0;whiteSpace=wrap;html=1;" vertex="1" parent="1">
          <mxGeometry x="1160" y="1000" width="120" height="60" as="geometry" />
        </mxCell>
        <mxCell id="kIqishwmATh65YuPElsZ-56" value="prot_max" style="rounded=0;whiteSpace=wrap;html=1;" vertex="1" parent="1">
          <mxGeometry x="680" y="1080" width="120" height="60" as="geometry" />
        </mxCell>
        <mxCell id="kIqishwmATh65YuPElsZ-58" value="fat_max" style="rounded=0;whiteSpace=wrap;html=1;" vertex="1" parent="1">
          <mxGeometry x="840" y="1080" width="120" height="60" as="geometry" />
        </mxCell>
        <mxCell id="kIqishwmATh65YuPElsZ-59" value="carb_max" style="rounded=0;whiteSpace=wrap;html=1;" vertex="1" parent="1">
          <mxGeometry x="1000" y="1080" width="120" height="60" as="geometry" />
        </mxCell>
        <mxCell id="kIqishwmATh65YuPElsZ-60" value="calorific_value_max" style="rounded=0;whiteSpace=wrap;html=1;" vertex="1" parent="1">
          <mxGeometry x="1160" y="1080" width="120" height="60" as="geometry" />
        </mxCell>
        <mxCell id="kIqishwmATh65YuPElsZ-62" value="multy" style="rounded=0;whiteSpace=wrap;html=1;" vertex="1" parent="1">
          <mxGeometry x="1640" y="240" width="120" height="60" as="geometry" />
        </mxCell>
        <mxCell id="kIqishwmATh65YuPElsZ-63" value="prot" style="rounded=0;whiteSpace=wrap;html=1;" vertex="1" parent="1">
          <mxGeometry x="520" y="760" width="120" height="60" as="geometry" />
        </mxCell>
        <mxCell id="kIqishwmATh65YuPElsZ-64" value="fat" style="rounded=0;whiteSpace=wrap;html=1;" vertex="1" parent="1">
          <mxGeometry x="680" y="760" width="120" height="60" as="geometry" />
        </mxCell>
        <mxCell id="kIqishwmATh65YuPElsZ-65" value="carb" style="rounded=0;whiteSpace=wrap;html=1;" vertex="1" parent="1">
          <mxGeometry x="840" y="760" width="120" height="60" as="geometry" />
        </mxCell>
        <mxCell id="kIqishwmATh65YuPElsZ-66" value="calorific_value" style="rounded=0;whiteSpace=wrap;html=1;" vertex="1" parent="1">
          <mxGeometry x="1000" y="760" width="120" height="60" as="geometry" />
        </mxCell>
        <mxCell id="kIqishwmATh65YuPElsZ-67" value="default_weight" style="rounded=0;whiteSpace=wrap;html=1;" vertex="1" parent="1">
          <mxGeometry x="1160" y="760" width="120" height="60" as="geometry" />
        </mxCell>
        <mxCell id="kIqishwmATh65YuPElsZ-68" value="default_weight" style="rounded=0;whiteSpace=wrap;html=1;" vertex="1" parent="1">
          <mxGeometry x="520" y="520" width="120" height="60" as="geometry" />
        </mxCell>
        <mxCell id="kIqishwmATh65YuPElsZ-69" value="id" style="rounded=0;whiteSpace=wrap;html=1;" vertex="1" parent="1">
          <mxGeometry x="-280" y="240" width="120" height="60" as="geometry" />
        </mxCell>
        <mxCell id="kIqishwmATh65YuPElsZ-70" value="id" style="rounded=0;whiteSpace=wrap;html=1;" vertex="1" parent="1">
          <mxGeometry x="-280" y="520" width="120" height="60" as="geometry" />
        </mxCell>
        <mxCell id="kIqishwmATh65YuPElsZ-71" value="id" style="rounded=0;whiteSpace=wrap;html=1;" vertex="1" parent="1">
          <mxGeometry x="-280" y="760" width="120" height="60" as="geometry" />
        </mxCell>
        <mxCell id="kIqishwmATh65YuPElsZ-72" value="my_food_id" style="rounded=0;whiteSpace=wrap;html=1;" vertex="1" parent="1">
          <mxGeometry x="1480" y="240" width="120" height="60" as="geometry" />
        </mxCell>
        <mxCell id="kIqishwmATh65YuPElsZ-73" value="id" style="rounded=0;whiteSpace=wrap;html=1;" vertex="1" parent="1">
          <mxGeometry x="-280" y="1000" width="120" height="60" as="geometry" />
        </mxCell>
      </root>
    </mxGraphModel>
  </diagram>
</mxfile>
